<!DOCTYPE svg PUBLIC "-//W3C//DTD SVG 1.1//EN" "http://www.w3.org/Graphics/SVG/1.1/DTD/svg11.dtd">
<!-- Uploaded to: SVG Repo, www.svgrepo.com, Transformed by: SVG Repo Mixer Tools -->
<svg width="800px" height="800px" viewBox="-2.4 -2.4 28.80 28.80" fill="none" xmlns="http://www.w3.org/2000/svg" transform="matrix(-1, 0, 0, 1, 0, 0)">
<g id="SVGRepo_bgCarrier" stroke-width="0"/>
<g id="SVGRepo_tracerCarrier" stroke-linecap="round" stroke-linejoin="round" stroke="#ededed" stroke-width="4.8"> <path d="M15 7C15 8.65685 13.6569 10 12 10C10.3431 10 9 8.65685 9 7C9 5.34315 10.3431 4 12 4C13.6569 4 15 5.34315 15 7Z" stroke="#f5f4f4" stroke-width="2"/> <path d="M5 19.5C5 15.9101 7.91015 13 11.5 13H12.5C16.0899 13 19 15.9101 19 19.5V20C19 20.5523 18.5523 21 18 21H6C5.44772 21 5 20.5523 5 20V19.5Z" stroke="#f5f4f4" stroke-width="2"/> </g>
<g id="SVGRepo_iconCarrier"> <path d="M15 7C15 8.65685 13.6569 10 12 10C10.3431 10 9 8.65685 9 7C9 5.34315 10.3431 4 12 4C13.6569 4 15 5.34315 15 7Z" stroke="#f5f4f4" stroke-width="2"/> <path d="M5 19.5C5 15.9101 7.91015 13 11.5 13H12.5C16.0899 13 19 15.9101 19 19.5V20C19 20.5523 18.5523 21 18 21H6C5.44772 21 5 20.5523 5 20V19.5Z" stroke="#f5f4f4" stroke-width="2"/> </g>
</svg>